<svg xmlns="http://www.w3.org/2000/svg" xml:space="preserve" viewBox="0 0 512 512"><linearGradient id="a" x1="108.73" x2="403.22" y1="404.53" y2="110.04" gradientTransform="matrix(1 0 0 -1 0 513.28)" gradientUnits="userSpaceOnUse"><stop offset="0" stop-color="#be2126"/><stop offset="1" stop-color="#7a1819"/></linearGradient><path fill="url(#a)" d="M486.66 193.42c-12.09-14.99-27.91-28.6-43.47-37.35-25.92-14.58-48.8-20.51-69.35-17.93 2.6-20.56-3.33-43.44-17.92-69.35-8.74-15.54-22.37-31.4-37.4-43.5C298.34 9.03 276.72.44 255.98.44s-42.36 8.59-62.52 24.84c-15.08 12.15-28.71 28.02-37.4 43.5-14.6 25.9-20.54 48.78-17.93 69.36-20.55-2.6-43.42 3.35-69.35 17.93-15.54 8.75-31.4 22.36-43.49 37.37C9.03 213.62.44 235.25.44 256s8.56 42.27 24.8 62.5c12.04 14.99 27.9 28.63 43.54 37.44 25.92 14.57 48.8 20.5 69.35 17.89-2.6 20.55 3.34 43.44 17.93 69.4 8.74 15.53 22.37 31.37 37.37 43.46 20.2 16.27 41.82 24.87 62.54 24.87 20.73 0 42.33-8.6 62.53-24.88 15.04-12.13 28.67-27.96 37.4-43.47 14.58-25.93 20.53-48.82 17.92-69.38 20.55 2.62 43.43-3.33 69.37-17.9 15.53-8.76 31.37-22.38 43.46-37.4 16.27-20.19 24.87-41.82 24.87-62.53s-8.61-42.38-24.89-62.58z"/><linearGradient id="b" x1="117.52" x2="394.44" y1="395.73" y2="118.81" gradientTransform="matrix(1 0 0 -1 0 513.28)" gradientUnits="userSpaceOnUse"><stop offset="0" stop-color="#e0b457"/><stop offset="1" stop-color="#543e19"/></linearGradient><path fill="url(#b)" d="M476.99 201.23c-10.97-13.61-25.88-26.44-39.88-34.33-20.19-11.35-37.75-16.87-53.7-16.87a61 61 0 0 0-24.23 4.86q-1.92.82-3.76 1.67.85-1.84 1.68-3.75c9.28-21.62 5.35-47.11-12-77.92-7.88-14.02-20.72-28.94-34.36-39.92-12.53-10.09-32.19-22.1-54.75-22.1s-42.23 12-54.74 22.08c-13.68 11.03-26.54 25.97-34.36 39.92-17.36 30.83-21.3 56.32-12 77.94q.8 1.89 1.65 3.75-1.86-.86-3.75-1.67a59 59 0 0 0-11.7-3.64 63 63 0 0 0-12.51-1.22c-15.95 0-33.51 5.52-53.7 16.87-14.01 7.88-28.94 20.71-39.91 34.34-10.1 12.52-22.11 32.18-22.11 54.77 0 17.8 7.64 36.72 22.07 54.73 10.93 13.6 25.86 26.45 39.95 34.38 20.16 11.33 37.71 16.85 53.63 16.85 8.6 0 16.78-1.65 24.3-4.9q1.92-.82 3.76-1.67-.85 1.85-1.7 3.8c-9.28 21.57-5.35 47.06 12.02 77.94 7.88 14 20.73 28.91 34.35 39.89 12.53 10.1 32.2 22.12 54.75 22.12s42.2-12.04 54.73-22.14c13.65-11 26.5-25.9 34.38-39.88 17.35-30.87 21.28-56.36 12-77.95l-1.7-3.78q1.85.85 3.78 1.67a61 61 0 0 0 24.3 4.9c15.92 0 33.46-5.52 53.64-16.85 14-7.89 28.91-20.73 39.88-34.36 10.1-12.53 22.13-32.2 22.13-54.75S487.1 213.76 477 201.23M230.74 72.72h57.6v57.6h-57.6zM256 457.08a39.15 39.15 0 1 1 0-78.3 39.15 39.15 0 0 1 0 78.3"/><linearGradient id="c" x1="220.14" x2="284.14" y1="133.17" y2="69.17" gradientTransform="matrix(1 0 0 -1 0 513.28)" gradientUnits="userSpaceOnUse"><stop offset="0" stop-color="#be2126"/><stop offset="1" stop-color="#7a1819"/></linearGradient><path fill="url(#c)" d="M224.06 384.02h67.24v67.24h-67.24z"/><linearGradient id="d" x1="219.19" x2="302.9" y1="138.51" y2="54.8" gradientTransform="matrix(1 0 0 -1 0 513.28)" gradientUnits="userSpaceOnUse"><stop offset="0" stop-color="#e0b457"/><stop offset="1" stop-color="#543e19"/></linearGradient><path fill="url(#d)" d="M224.34 379.92v76.8h76.8v-76.8zm31.65 65.5c-15.28 0-27.67-12.74-27.67-28.45s12.39-28.44 27.67-28.44 27.67 12.74 27.67 28.44-12.39 28.44-27.67 28.44"/><path fill="#d4cdbc" d="m269.45 423.62-2.81-2.29-4.9 6.03 1.05.86h-4.98v-9.52h10.5v-3.63h-10.5v-2.89h10.5v-2.95l2.71 1.55 1.8-3.15L256 398l-16.83 9.63 1.8 3.15 2.7-1.55v2.95h10.51v2.9h-10.5v3.62h10.5v9.52h-4.74l1.06-.86-4.91-6.03-2.81 2.3 3.74 4.59h-6.45v3.62h31.86v-3.62h-6.22zm-15.27-15.06h-9.33l11.14-6.38 11.14 6.38z"/><path fill="#d4cdbc" d="M469.39 207.34c-11.41-14.15-25.66-25.51-37.06-31.94-22.86-12.85-47.5-20.9-69.29-11.55A173 173 0 0 0 336 178.42c-1.62 1.08-3.55-.84-2.47-2.47a175 175 0 0 0 14.62-27c9.36-21.8 1.3-46.47-11.55-69.29-12.85-22.87-45.53-57.04-80.6-57.04-17.51 0-34.46 8.52-48.61 19.93-14.16 11.4-25.57 25.66-32 37.11-12.84 22.82-20.9 47.5-11.54 69.29a172 172 0 0 0 14.1 26.25c1.19 1.8-.92 3.9-2.72 2.73a174 174 0 0 0-26.28-14.08c-21.79-9.35-46.42-1.3-69.28 11.56C56.8 188.26 22.62 220.9 22.62 256c0 17.55 8.57 34.46 19.93 48.61 11.4 14.2 25.7 25.57 37.1 32 22.87 12.84 47.5 20.9 69.3 11.5a174 174 0 0 0 27.03-14.59c1.62-1.08 3.55.86 2.47 2.48a172 172 0 0 0-14.6 27.05c-9.36 21.75-1.31 46.43 11.54 69.3 12.85 22.81 45.54 57.04 80.6 57.04 17.5 0 34.46-8.57 48.61-19.97 14.16-11.4 25.56-25.66 31.99-37.07 12.85-22.87 20.9-47.55 11.55-69.3A174 174 0 0 0 333.52 336c-1.08-1.62.84-3.55 2.47-2.47 6.22 4.13 15.4 9.56 27.05 14.58 21.8 9.4 46.43 1.35 69.29-11.5 22.81-12.85 57.04-45.54 57.04-80.6 0-17.56-8.57-34.5-19.98-48.66zM234.95 92.21l5.7-5.65-1.08-1.14c-.44-.44-.44-1.1-.05-1.47l1.14-1.14c.37-.38 1.03-.38 1.46.05l1.14 1.09 5.12-5.11a.53.53 0 0 1 .76 0l4.94 4.94c.22.22.22.55 0 .77l-5 5 7.72 7.34 7.77-7.23-4.83-4.84c-.11-.1-.11-.32 0-.48l5.27-5.39c.1-.16.33-.16.49 0l5.05 5.06 1.3-1.25c.44-.43 1.1-.43 1.47-.05l1.14 1.14c.38.38.38 1.03-.05 1.46l-1.25 1.31c1.42 1.57 5.71 7.17 3.32 14.4-.05.17-.27.23-.38.12l-8.54-8.54-7.28 7.6 15.99 15.18c.43.43.48 1.08.05 1.52l-2.72 2.72c-.44.43-1.1.38-1.53-.05l-15.11-15.82-15.01 15.71c-.44.43-1.14.49-1.58.05l-2.77-2.77c-.43-.44-.37-1.14.05-1.57l15.77-15.01-7.28-7.61-5.38 5.38a.53.53 0 0 1-.76 0l-5.06-4.9a.6.6 0 0 1 0-.8zm-88.95 87a1.8 1.8 0 0 1 2.3-1.1 93 93 0 0 1 18.38 8.93c6.26 3.9 11.84 9.16 16.58 14.78 1.67 1.99 3.27 4.07 5.3 5.67q.38.3.77.54a13.4 13.4 0 0 0 9.02 1.72c5.71-1.26 10.64-6.49 11.06-12.43v-.13a11.7 11.7 0 0 0-1.5-6.44c-1.3-2.36-3.24-4.07-5.24-5.74q-.76-.56-1.46-1.17c-.47-.38-.89-.8-1.35-1.23.21.2.39.34.6.52l-1.28-1.17.64.6-1.3-1.17-.77-.76.18.17a81 81 0 0 1-15.92-21.18 432 432 0 0 1-4.5-10.68c-.39-.96.1-2.07 1.07-2.4 18.63-6.4 40.31-2.29 55.18 12.58a53.2 53.2 0 0 1 0 75.17A53.15 53.15 0 0 1 146 179.2zm32.68 186.3a1.8 1.8 0 0 1-1.12-2.3l.63-1.74c4.66-12.46 12.03-23.67 22.13-32.37q1.41-1.2 2.77-2.4-1.35 1.05-3.23 2.7c.46-.43.88-.85 1.35-1.23q.91-.79 1.9-1.5c3-2.71 5.56-5.64 6.1-9.99.21-1.7.08-3.4-.35-5a14 14 0 0 0-4.89-7.11q-.63-.45-1.32-.83l-.12-.06a13.6 13.6 0 0 0-11.03-.65c-2.92 1.06-4.6 2.86-6.53 5.2a94 94 0 0 1-3.94 4.5 81 81 0 0 1-32.75 21.18 1.8 1.8 0 0 1-2.29-1.11 53.15 53.15 0 1 1 87.76 20.08 53.2 53.2 0 0 1-55.08 12.63m77.31 82.62c-16.76 0-30.4-13.97-30.4-31.16s13.64-31.16 30.4-31.16 30.4 13.98 30.4 31.16c0 17.19-13.64 31.16-30.4 31.16m110-115.33a1.8 1.8 0 0 1-2.3 1.1c-11.03-3.8-21.18-10.26-29.75-18.28q-3.3-3.08-6.3-6.42c-1.82-2.02-3.33-4.5-5.74-5.76-4.26-2.21-9.4-1.63-13.34.99a14 14 0 0 0-4.47 4.85q-.72 1.38-1.1 2.87a13 13 0 0 0 .2 7.12c1 3.1 3 4.65 5.35 6.77q1.47 1.35 2.88 2.7l.7.66-.23-.2c8.9 8.62 16.22 18.22 20.97 29.9a87 87 0 0 1 1.56 4.12 1.8 1.8 0 0 1-1.1 2.3 53.2 53.2 0 0 1-55.09-12.64 53.2 53.2 0 0 1 0-75.17 53.15 53.15 0 0 1 87.76 55.1m-12.58-98.48a53.2 53.2 0 0 1-75.18 0 53.2 53.2 0 0 1 0-75.18 53.2 53.2 0 0 1 55.08-12.62 1.8 1.8 0 0 1 1.12 2.29 96 96 0 0 1-8.98 18.42c-2.3 3.61-4.96 7.33-8.07 10.3a228 228 0 0 1-8.5 7.73c-3.6 3.1-6.42 6.84-6.26 11.78.04 1.5.36 2.99.89 4.39l.14.38.22.46a14 14 0 0 0 2.72 3.92l.1.1a12 12 0 0 0 1.74 1.42c2.7 1.8 6.07 2.52 9.28 2.08h.02q.7-.1 1.38-.27l.38-.1q.6-.16 1.17-.39l.42-.17c3.66-1.59 5.78-5.05 8.33-7.95 4.65-5.3 9.92-10.13 15.92-13.86a93 93 0 0 1 18.38-8.94c.94-.32 1.97.17 2.3 1.1a53.1 53.1 0 0 1-12.59 55.1z"/><linearGradient id="e" x1="161.93" x2="350.05" y1="351.33" y2="163.22" gradientTransform="matrix(1 0 0 -1 0 513.28)" gradientUnits="userSpaceOnUse"><stop offset="0" stop-color="#004a6a"/><stop offset="1" stop-color="#002a3c"/></linearGradient><path fill="url(#e)" d="M117.5 209.48h276.97a7.5 7.5 0 0 1 7.49 7.48v78.08a7.5 7.5 0 0 1-7.49 7.5H117.51a7.5 7.5 0 0 1-7.49-7.5v-78.08a7.5 7.5 0 0 1 7.49-7.49"/><path fill="#cfc8b7" d="m146.28 281.21-7.38-7.37v-40.83l7.38-7.3h17.12l7.38 7.3v9.44l-2.39 2.3h-3.56l-2.3-2.3v-5.95l-2.53-2.53h-10.3l-2.54 2.53v33.94l2.53 2.53H160l2.54-2.53.08-12.37h-7.7l-2.3-2.38v-3.57l2.3-2.38h13.56l2.38 2.38-.08 21.73-7.37 7.37zm41.38 0-7.38-7.37v-40.75l7.38-7.37h17.04l7.37 7.37v40.75l-7.37 7.37zm3.4-8.25h10.23l2.53-2.53V236.5l-2.53-2.54h-10.23l-2.53 2.54v33.93zm32.83 8.25-2.3-2.3V228.1l2.38-2.38h3.57l2.38 2.38v42.34l2.46 2.53h18.86l2.38 2.38v3.56l-2.38 2.3zm39.31 0-2.3-2.3v-50.9l2.3-2.3h22.36l7.37 7.38v40.75l-7.37 7.37zm8.49-8.25h10.39l2.53-2.53V236.5l-2.53-2.46h-10.4l-2.45 2.46v33.93zm32.97 8.25-2.3-2.3v-50.9l2.3-2.3h27.35l2.39 2.3v3.65l-2.39 2.3h-18.86l-2.46 2.54v10.38l2.46 2.46h12.2l2.39 2.3v3.56l-2.38 2.38h-12.21l-2.46 2.54v10.3l2.46 2.54H332l2.39 2.38v3.56l-2.39 2.3h-27.35zm38.93 0-2.3-2.3V228.1l2.3-2.38h3.57l2.38 2.38v4.44l15.3 25.6V228.1l2.3-2.38h3.65l2.3 2.38v50.82l-2.3 2.3h-3.65l-2.3-2.3v-4.45l-15.3-25.92v30.36l-2.38 2.3z"/><linearGradient id="f" x1="108.44" x2="403.57" y1="404.83" y2="109.7" gradientTransform="matrix(1 0 0 -1 0 513.28)" gradientUnits="userSpaceOnUse"><stop offset="0" stop-color="#e0b457"/><stop offset="1" stop-color="#543e19"/></linearGradient><path fill="url(#f)" d="M487.07 193.23c-12.07-15.03-27.98-28.72-43.66-37.55-25.92-14.57-48.52-20.47-69.06-18.01 2.44-20.55-3.47-43.16-18.05-69.11-8.78-15.58-22.44-31.47-37.49-43.6C298.54 8.64 276.82 0 256 0s-42.52 8.64-62.81 24.98c-15.08 12.15-28.76 28.05-37.51 43.6-14.59 25.94-20.49 48.54-18.04 69.09-20.53-2.45-43.13 3.44-69.08 18.02-15.57 8.78-31.46 22.44-43.6 37.5C8.64 213.45 0 235.18 0 256s8.64 42.58 24.99 62.86c12.1 15.02 27.99 28.68 43.59 37.46 25.9 14.57 48.5 20.48 69.06 18.05-2.45 20.56 3.45 43.16 18.05 69.05 8.76 15.6 22.43 31.5 37.5 43.64C213.45 503.38 235.17 512 256 512s42.56-8.62 62.8-24.93c15.13-12.2 28.8-28.1 37.5-43.63 14.6-25.9 20.51-48.5 18.06-69.07 20.54 2.43 43.14-3.47 69.06-18.05 15.6-8.78 31.51-22.44 43.63-37.48 16.32-20.26 24.95-42 24.95-62.84s-8.61-42.47-24.91-62.77zm-.73 125.05c-12.05 14.96-27.86 28.55-43.36 37.27-26 14.61-48.58 20.46-69.08 17.87l-.57-.07.07.57c2.6 20.54-3.25 43.13-17.88 69.1-8.66 15.43-22.24 31.24-37.3 43.36-20.07 16.19-41.59 24.74-62.24 24.74s-42.16-8.56-62.26-24.75c-14.98-12.07-28.57-27.88-37.28-43.38-14.63-25.97-20.47-48.56-17.87-69.07l.07-.57-.57.07c-20.5 2.57-43.1-3.27-69.08-17.88-15.5-8.73-31.3-22.31-43.34-37.25C9.44 298.17.87 276.62.87 255.99s8.57-42.14 24.77-62.27c12.07-14.96 27.86-28.55 43.34-37.28C95 141.83 117.6 136 138.08 138.6l.57.07-.07-.57c-2.6-20.5 3.24-43.1 17.86-69.1 8.7-15.46 22.3-31.26 37.3-43.35C213.85 9.44 235.37.87 255.97.87s42.15 8.56 62.26 24.78C333.2 37.7 346.78 53.5 355.5 68.98c14.62 26.02 20.47 48.63 17.88 69.13l-.07.57.57-.07c20.48-2.61 43.08 3.22 69.07 17.83 15.59 8.78 31.4 22.38 43.4 37.34 16.18 20.14 24.72 41.66 24.72 62.22s-8.56 42.18-24.75 62.28z"/><linearGradient id="g" x1="117.23" x2="394.77" y1="396.03" y2="118.49" gradientTransform="matrix(1 0 0 -1 0 513.28)" gradientUnits="userSpaceOnUse"><stop offset="0" stop-color="#e0b457"/><stop offset="1" stop-color="#543e19"/></linearGradient><path fill="url(#g)" d="M477.4 201c-10.97-13.64-25.95-26.53-40.07-34.49-20.25-11.38-37.87-16.9-53.85-16.9-8.66 0-16.9 1.65-24.48 4.93l-2.7 1.18q.62-1.35 1.22-2.73c9.34-21.7 5.4-47.33-12.03-78.33-7.91-14.04-20.79-29-34.46-40.02C298.44 24.5 278.68 12.42 256 12.42s-42.44 12.1-55.02 22.24c-13.68 11.02-26.57 25.97-34.49 40.01-17.42 31-21.35 56.63-12 78.34l1.19 2.72q-1.3-.6-2.7-1.19a61 61 0 0 0-24.47-4.93c-16 0-33.62 5.53-53.86 16.9-14.05 7.92-29 20.8-40.01 34.47-10.14 12.6-22.23 32.36-22.23 55.04s12.09 42.47 22.23 55.06c11 13.65 25.95 26.52 40 34.43 20.26 11.39 37.9 16.93 53.92 16.93a61 61 0 0 0 24.4-4.9l2.7-1.18-1.2 2.68c-9.34 21.74-5.4 47.36 12.03 78.32 7.9 14.06 20.78 29.03 34.47 40.04 12.57 10.13 32.33 22.2 55.02 22.2s42.45-12.06 55.02-22.18c13.72-11.05 26.6-26.02 34.47-40.05 17.44-30.95 21.37-56.58 12.02-78.33q-.57-1.36-1.18-2.68l2.7 1.19a59 59 0 0 0 11.79 3.66c4.05.82 8.3 1.23 12.6 1.23 16.02 0 33.66-5.53 53.91-16.93 14.08-7.9 29.05-20.78 40.04-34.44 10.13-12.57 22.2-32.32 22.2-55.05 0-17.9-7.67-36.91-22.17-55zm-.72 109.5c-10.93 13.58-25.8 26.37-39.78 34.23-20.12 11.31-37.61 16.81-53.48 16.81-4.25 0-8.43-.4-12.43-1.22a59 59 0 0 1-11.62-3.6q-1.88-.81-3.75-1.67l-1.08-.5.5 1.09 1.65 3.73c9.23 21.49 5.3 46.85-11.98 77.55-7.81 13.93-20.62 28.8-34.26 39.8-12.45 10.03-32 21.99-54.45 21.99s-42.01-11.97-54.48-22c-13.6-10.95-26.4-25.82-34.25-39.8-17.29-30.68-21.21-56.05-11.98-77.53q.82-1.91 1.67-3.73l.5-1.1-1.1.5q-1.82.84-3.74 1.67a60.5 60.5 0 0 1-24.06 4.83c-15.87 0-33.36-5.5-53.48-16.82-13.95-7.85-28.82-20.65-39.75-34.22-10.05-12.47-22.04-32.05-22.04-54.5s11.98-42 22.04-54.48c10.94-13.58 25.8-26.38 39.75-34.24 20.11-11.3 37.6-16.8 53.43-16.8 8.53 0 16.65 1.64 24.12 4.86q1.99.85 3.76 1.67l1.1.5-.51-1.09q-.85-1.85-1.69-3.77c-9.23-21.45-5.3-46.81 11.98-77.56 7.86-13.94 20.67-28.8 34.27-39.75C214.01 25.3 233.57 13.31 256 13.31s42 11.97 54.47 22.02c13.59 10.95 26.39 25.82 34.25 39.76 17.28 30.76 21.2 56.12 11.99 77.54q-.84 1.94-1.7 3.8l-.5 1.09 1.1-.5q1.83-.85 3.74-1.68a60.5 60.5 0 0 1 24.13-4.85c15.84 0 33.3 5.49 53.42 16.79 14.03 7.9 28.91 20.71 39.81 34.27C491.1 219.5 498.7 238.31 498.7 256c0 22.48-11.97 42.04-22 54.5z"/><linearGradient id="h" x1="223.62" x2="248.89" y1="534.01" y2="398.94" gradientTransform="matrix(1 0 0 -1 0 513.28)" gradientUnits="userSpaceOnUse"><stop offset="0" stop-color="#fff"/><stop offset="1" stop-color="#fff" stop-opacity="0"/></linearGradient><path fill="url(#h)" d="M325.05 77.97a131 131 0 0 0-44.54-7.75c-46.92 0-88.1 24.62-111.3 61.65-.66-13.2 4.11-28.71 14.41-46.99 6.74-12.01 17.89-24.93 29.82-34.54 10.16-8.2 25.89-17.96 43.04-17.96 28.19 0 55.01 25.64 68.57 45.6"/></svg>
